<svg xmlns="http://www.w3.org/2000/svg" width="124" height="124" viewBox="0 0 124 124"><g fill="none" fill-rule="evenodd"><rect width="124" height="124" fill="#D0103A" fill-rule="nonzero"/><polygon fill="#FFF" fill-rule="nonzero" points="22.338 108.864 22.338 99.295 24.112 99.295 24.112 108.864"/><path fill="#FFF" fill-rule="nonzero" d="M30.3394268 108.864237 30.3394268 105.356053C30.3394268 103.439952 29.8215677 103.10382 28.9675544 103.10382 28.4231967 103.10382 27.9704485 103.336992 27.6986482 103.76397 27.478331 104.113729 27.4139771 104.527837 27.4139771 105.485509L27.4139771 108.864237 25.6915656 108.864237 25.6915656 101.692673 27.2814839 101.692673 27.2814839 102.378563C27.915937 101.772921 28.4852792 101.524607 29.3006802 101.524607 30.2977861 101.524607 31.0745747 101.886479 31.5409508 102.559499 31.9293451 103.11669 32.0588099 103.738231 32.0588099 105.019921L32.0588099 108.864237 30.3394268 108.864237ZM36.0487477 100.952275C35.3756823 100.952275 35.1553651 101.172578 35.140223 101.819858L36.1138587 101.819858 36.1138587 103.258259 35.1424943 103.258259 35.1424943 108.860452 33.4208399 108.860452 33.4208399 103.258259 32.7992575 103.258259 32.7992575 101.819858 33.4208399 101.819858C33.6146585 99.9272252 34.5474106 99.2950859 35.7898182 99.2950859 35.9328414 99.2932944 36.0758057 99.3018969 36.2175819 99.3208257L36.2175819 100.952275 36.0487477 100.952275ZM38.6251725 104.875324 38.6251725 108.864237 36.9035181 108.864237 36.9035181 101.692673 38.4828369 101.692673 38.4828369 102.391433C38.9370993 101.731283 39.2982379 101.524607 40.0364143 101.524607L40.165879 101.524607 40.165879 103.181039C39.1301608 103.205265 38.6251725 103.761699 38.6251725 104.875324ZM46.3801883 108.864237 46.3801883 107.932305C45.6942521 108.709041 45.0083159 109.03306 43.9983393 109.03306 41.9004042 109.03306 40.3861963 107.466717 40.3861963 105.304573 40.3861963 103.11669 41.9140321 101.524607 44.0369516 101.524607 45.0726698 101.524607 45.7851046 101.860739 46.3839738 102.650345L46.3839738 101.692673 47.9632927 101.692673 47.9632927 108.864237 46.3801883 108.864237ZM44.214871 103.101549C42.9853342 103.101549 42.117693 104.033481 42.117693 105.340912 42.117693 106.596863 42.9853342 107.451576 44.2375841 107.451576 45.5451026 107.451576 46.3219306 106.518887 46.3219306 105.331827 46.3287052 104.019097 45.4481933 103.101549 44.214871 103.101549Z"/><polygon fill="#FFF" fill-rule="nonzero" points="51.132 103.257 51.132 108.859 49.409 108.859 49.409 103.257 48.568 103.257 48.568 101.69 49.409 101.69 49.409 99.295 51.132 99.295 51.132 101.69 52.164 101.69 52.164 103.257"/><path fill="#FFF" fill-rule="nonzero" d="M59.9225067 106.039672 54.367635 106.039672C54.5750815 106.907255 55.3261286 107.451576 56.3489761 107.451576 57.0606538 107.451576 57.4884175 107.257013 57.9282949 106.739189L59.8059127 106.739189C59.3266659 108.214686 57.8374425 109.030789 56.3875884 109.030789 54.1995579 109.030789 52.5036451 107.399339 52.5036451 105.302302 52.4955005 104.29718 52.8911075 103.330837 53.6017651 102.619942 54.3124228 101.909048 55.278672 101.51308 56.2838651 101.520822 58.4204125 101.520822 59.9868606 103.151514 59.9868606 105.381793 59.9914519 105.602857 59.9698503 105.823687 59.9225067 106.039672ZM56.3096067 103.101549C55.2875163 103.101549 54.5879523 103.606503 54.316152 104.525566L58.2909477 104.525566C58.0698734 103.606503 57.3718235 103.101549 56.3096067 103.101549ZM64.5309985 109.030789C62.4073219 109.030789 60.6985383 107.36073 60.6985383 105.276562 60.6985383 103.165898 62.3558389 101.522336 64.4795155 101.522336 66.1103174 101.522336 67.5344299 102.441399 68.0916584 104.084961L66.1496868 104.084961C65.7999048 103.424811 65.2563041 103.100792 64.4795155 103.100792 63.2878338 103.100792 62.4353348 104.009256 62.4353348 105.262936 62.4353348 106.516615 63.3287174 107.450819 64.519642 107.450819 65.2313197 107.450819 65.7234373 107.16541 66.151201 106.50526L68.0931726 106.50526C67.4958176 108.111726 66.2011698 109.030789 64.5309985 109.030789ZM73.8395917 108.864237 73.8395917 105.200857C73.8395917 103.698864 73.4511973 103.10382 72.4412206 103.10382 71.4569855 103.10382 70.9270127 103.647384 70.9270127 105.223569L70.9270127 108.857424 69.2046012 108.857424 69.2046012 99.2950859 70.9262556 99.2950859 70.9262556 102.182486C71.4441147 101.716142 72.014214 101.508709 72.7516333 101.508709 74.4740448 101.508709 75.561246 102.454268 75.561246 104.810218L75.561246 108.864237 73.8395917 108.864237ZM81.5294965 108.864237 81.5294965 105.356053C81.5294965 103.439952 81.0116374 103.10382 80.1576242 103.10382 79.6132664 103.10382 79.1605182 103.336992 78.8887179 103.76397 78.6684007 104.113729 78.6032897 104.527837 78.6032897 105.485509L78.6032897 108.864237 76.8816353 108.864237 76.8816353 101.692673 78.4715537 101.692673 78.4715537 102.378563C79.1060068 101.772921 79.676106 101.524607 80.491507 101.524607 81.4886129 101.524607 82.2654016 101.886479 82.7317776 102.559499 83.1201719 103.11669 83.2496367 103.738231 83.2496367 105.019921L83.2496367 108.864237 81.5294965 108.864237ZM84.5586695 108.864237 84.5586695 101.692673 86.2810809 101.692673 86.2810809 108.864237 84.5586695 108.864237ZM84.5715402 100.657024 84.5715402 98.9347286 86.2939517 98.9347286 86.2939517 100.657024 84.5715402 100.657024ZM94.6834206 106.039672 89.1285489 106.039672C89.3359954 106.907255 90.0870425 107.451576 91.10989 107.451576 91.8215677 107.451576 92.2455459 107.257013 92.6892088 106.739189L94.5668266 106.739189C94.0875798 108.214686 92.5983564 109.030789 91.1485023 109.030789 88.9604718 109.030789 87.264559 107.399339 87.264559 105.302302 87.2568222 104.297441 87.6526093 103.331491 88.3632221 102.620925 89.0738349 101.91036 90.0398505 101.5146 91.044779 101.522336 93.1813264 101.522336 94.7477745 103.153029 94.7477745 105.383307 94.7522463 105.603866 94.7306453 105.824181 94.6834206 106.039672ZM91.0712777 103.101549C90.0484302 103.101549 89.3488662 103.606503 89.0770659 104.525566L93.0518616 104.525566C92.8315444 103.606503 92.1327374 103.101549 91.0712777 103.101549L91.0712777 103.101549Z"/><polygon fill="#FFF" fill-rule="nonzero" points="99.938 108.864 97.491 105.511 97.491 108.864 95.774 108.864 95.774 99.295 97.495 99.295 97.495 105.069 99.787 101.69 101.846 101.69 99.282 105.199 102.26 108.862"/><line x1="54.964" x2="54.959" y1="29.324" y2="29.324"/><polygon points="15.418 21.607 15.418 34.813 15.418 21.607"/><path d="M71.3668901 32.0051773 71.3623475 32.0051773C70.9285269 32.1634014 70.491678 32.8841159 70.2100353 33.9810859L74.3067248 33.9409621 74.3067248 33.9409621C74.344294 33.9387137 74.3819641 33.9387137 74.4195333 33.9409621 74.4539764 33.941953 74.4883448 33.9447326 74.5224994 33.9492897L74.5224994 33.9492897C74.9813044 33.9992552 75.3848408 34.3406861 75.662698 34.8615386 75.6276367 34.6417159 75.6101679 34.4194467 75.6104578 34.196846 75.6104578 33.2535578 75.9132994 32.4223135 76.3804325 31.943856L71.6296052 31.943856C71.5388841 31.9470586 71.4496535 31.9678862 71.3668901 32.0051773ZM40.1007681 24.5633452C39.3095945 24.5633452 38.6683274 25.71558 38.6683274 27.1373258 38.6683274 28.5590715 39.3095945 29.7113063 40.1007681 29.7113063 40.8919417 29.7113063 41.5324517 28.5590715 41.5324517 27.1373258 41.5324517 25.71558 40.8911846 24.5633452 40.1007681 24.5633452ZM60.1950642 42.1300056 54.9362201 42.1300056 54.9362201 56.5723077 60.1943071 56.5723077C58.671771 55.121794 57.6746651 52.5001191 57.6746651 49.4454098 57.6746651 47.4263491 58.1168138 45.571569 58.8512047 44.1089424 59.2055293 43.3231213 59.6544919 42.6516151 60.1950642 42.1300056ZM38.2382924 31.7205253C37.9066808 32.4230706 37.3880646 32.8826018 36.7929809 32.9090987L36.5370798 32.9257538 35.6368832 32.9196974 34.1393316 32.9196974 31.964929 32.9318103C32.2049309 33.8750984 32.5070154 34.5360058 32.912066 34.9364869 33.0818358 35.1487267 33.3398491 35.2710236 33.6116301 35.2680762L39.0067529 35.2680762C38.4767801 34.723755 38.1322978 33.7797098 38.1322978 32.7084796 38.1320456 32.3763109 38.1675822 32.0450817 38.2382924 31.7205253L38.2382924 31.7205253Z"/><path d="M32.8583117 35.7533472C31.7892809 34.5549321 31.0723034 32.5737242 31.1669414 29.2956842 31.2206958 27.4310624 31.6393743 25.5755252 32.8401412 24.147723 32.8613401 24.1219832 32.9029808 24.1280397 32.9355363 24.1280397L37.3403671 24.1280397C36.5401082 22.6404303 35.4332222 21.6865434 34.2104993 21.6191657L34.1802152 21.6191657C34.1484168 21.6191657 34.1158613 21.6146233 34.084063 21.6108381L34.069678 21.6108381C31.5417079 21.6108381 29.4059176 25.4142729 29.4059176 29.9194959 29.4059176 34.2664949 31.4879535 38.0123937 34.0727064 38.0123937L34.0727064 38.0123937C34.2577064 38.0165258 34.4425254 37.9982231 34.623121 37.9578859L34.623121 37.9578859C35.6368832 37.7618091 36.5552503 36.9578187 37.2623854 35.7556184L32.8583117 35.7533472ZM63.0349611 40.9262911C63.0796302 40.9262911 63.1227852 40.9217488 63.1674543 40.9217488L63.1674543 40.9217488 63.2954049 40.9293193C63.3060043 40.9293193 63.3150896 40.9293193 63.325689 40.9331046 64.8270262 41.0035105 66.1557436 42.0686843 67.0748678 43.7387434L69.0796791 43.7387434C67.5563859 42.2889867 66.5600371 39.6665547 66.5600371 36.6126025 66.5600371 33.5086847 67.5987837 30.7878359 69.1485755 29.2971983L54.9331917 29.2971983 54.9331917 40.9217488 62.9910491 40.9217488C63.0057514 40.9225504 63.020406 40.9240663 63.0349611 40.9262911L63.0349611 40.9262911ZM76.056392 36.3998706 76.3592336 36.3998706C76.2164201 36.2491256 76.0953747 36.0791638 75.9996092 35.8949161 76.0284537 36.0619709 76.0474143 36.2305821 76.056392 36.3998706ZM73.3883577 34.382324 70.1108547 34.4141203C69.9985293 34.982226 69.9319431 35.5584235 69.9117363 36.1371731 69.9117363 36.7730978 69.9321781 37.4491462 69.9791186 37.9964956 70.0124312 38.2909892 70.054829 38.5703418 70.1085834 38.829254L73.3747298 38.8201694C72.9204675 38.3553388 72.6251969 37.5528625 72.6251969 36.6247153 72.6251969 35.6965682 72.9295527 34.8630528 73.3883577 34.382324ZM24.0804484 36.1969803C24.0456216 36.1969803 24.0115519 36.192438 23.9774823 36.1886523L23.9729396 36.1886523C21.4449695 36.1871386 19.3061509 39.9920876 19.3061509 44.4973106 19.3061509 48.465026 21.0527897 51.8763073 23.2559622 52.4933056L23.2559622 52.4933056C23.4808195 52.5610104 23.7146519 52.594194 23.9494694 52.591851L23.9782394 52.591851C24.3026594 52.5899769 24.6236181 52.5249151 24.9231051 52.400188L24.9231051 52.400188C26.9733426 51.5999829 28.5276779 48.2825762 28.5276779 44.3905661 28.5291912 39.9792177 26.5334652 36.3037248 24.0804484 36.1969803Z"/><path d="M74.3816781 38.8315252C75.0759424 38.8315252 75.6392278 37.8276727 75.6392278 36.5883768 75.6392278 35.3490809 75.0759424 34.3452284 74.3824352 34.3452284 73.688928 34.3452284 73.1248855 35.3498379 73.1248855 36.5883768 73.1248855 37.8269157 73.6881709 38.8315252 74.3816781 38.8315252ZM75.9662967 37.4854847C76.0712433 37.2587128 76.2121099 37.0503671 76.3834609 36.8684864L76.0533636 36.8684864C76.0404534 37.0761058 76.0113426 37.2823995 75.9662967 37.4854847L75.9662967 37.4854847ZM40.1007681 30.1662953C39.3095945 30.1662953 38.6683274 31.3185301 38.6683274 32.7402758 38.6683274 34.1620216 39.3095945 35.3142564 40.1007681 35.3142564 40.8919417 35.3142564 41.5324517 34.1620216 41.5324517 32.7402758 41.5324517 31.3185301 40.8911846 30.1662953 40.1007681 30.1662953Z"/><ellipse cx="36.71" cy="29.891" rx="1.428" ry="2.548"/><path d="M38.5100927 30.9097214C38.6290352 30.6521318 38.78911 30.4156155 38.9840398 30.2094473L38.6123017 30.2064191C38.596549 30.4431516 38.562376 30.6782971 38.5100927 30.9097214L38.5100927 30.9097214ZM38.6123017 29.6764819 38.9605695 29.6764819C38.7982184 29.5053522 38.6608369 29.3121645 38.5524905 29.1026356 38.5842378 29.2925021 38.604213 29.4841499 38.6123017 29.6764819L38.6123017 29.6764819ZM33.2845612 24.6837166 33.2800186 24.6837166C32.7871439 24.8623812 32.2897266 25.6822697 31.9702287 26.9276221L36.6241467 26.8821989 36.6241467 26.8821989C36.6667671 26.879945 36.7094769 26.879945 36.7520973 26.8821989 36.7915239 26.8829183 36.8308031 26.8872261 36.8694484 26.8950688 37.3903359 26.9518478 37.8483838 27.340216 38.1648533 27.9314745 38.1243937 27.6811658 38.1043905 27.4279777 38.1050421 27.1744214 38.1050421 26.1024342 38.4533099 25.1583889 38.9794971 24.6140678L33.5813459 24.6140678C33.4788583 24.6179788 33.3780881 24.6416273 33.2845612 24.6837166Z"/><path d="M35.5838859 27.3841251 31.8596915 27.4204636C31.7319423 28.0656956 31.6559899 28.7201081 31.6325604 29.3774459 31.6280177 30.1004316 31.6560306 30.8688405 31.7082708 31.4903812 31.7468831 31.8249986 31.7960948 32.1422039 31.855906 32.4397258L35.5657154 32.429127C35.0493705 31.8991898 34.7139735 30.9907261 34.7139735 29.9308517 34.7139735 28.8709774 35.05997 27.9307174 35.5838859 27.3841251ZM30.340941 22.1195778C30.4915163 21.9403845 30.6514899 21.7693025 30.8201878 21.6070528L30.8201878 21.6070528C30.6514899 21.7693025 30.4915163 21.9403845 30.340941 22.1195778L30.340941 22.1195778ZM17.7291033 44.4973106C17.7291033 42.2034397 18.2318203 40.0958038 19.0661489 38.4348293 19.4689282 37.5415067 19.9746737 36.7783971 20.5932276 36.1863816L15.3790526 36.1863816 15.3790526 52.5932366 20.5932276 52.5932366C18.8617308 50.9496743 17.7291033 47.966885 17.7291033 44.4973106Z"/><polygon points="15.418 21.607 15.418 34.813 15.418 21.607"/><path d="M30.340941,22.1195778 C30.1864918,22.3017752 30.0378471,22.4953285 29.8950068,22.7002375 C30.0373423,22.4958332 30.1859871,22.3022799 30.340941,22.1195778 Z"/><polygon points="15.392 63.902 16.49 63.902 22.631 53.967 15.392 53.967"/><path d="M29.7761415 42.4048158 31.6416456 39.3872021 29.0394793 39.3872021C29.4009158 40.3612013 29.6481225 41.3738423 29.7761415 42.4048158L29.7761415 42.4048158ZM90.7585937 48.6883566C90.7336093 48.6883566 90.7086249 48.6883566 90.6828833 48.6823002L90.6828833 48.6823002C88.859777 48.6823002 87.3190705 51.4251036 87.3190705 54.6743756 87.3190705 57.5352793 88.5788915 59.9949448 90.1672956 60.4408491L90.1672956 60.4408491C90.3295644 60.4896833 90.4982907 60.513676 90.6677413 60.5120931L90.6889402 60.5120931C90.9229367 60.5107393 91.1544208 60.463674 91.3703337 60.3734714L91.3703337 60.3734714C92.8489578 59.7965969 93.9694716 57.4043091 93.9694716 54.5971562 93.9664432 51.416019 92.5271886 48.7655761 90.7585937 48.6883566ZM94.7780586 52.6045924 95.7691077 50.989041 94.3306102 50.989041C94.5277052 51.5131175 94.6774531 52.0537954 94.7780586 52.6045924Z"/><polygon points="84.057 63.536 88.074 63.536 89.321 61.503 84.057 61.503"/><path d="M97.0864686 48.3681232C96.3149797 47.5043256 95.7993919 46.0757664 95.8667741 43.7114895 95.9053864 42.3669632 96.2074709 41.0292503 97.0728407 40.0019293 97.0879828 39.98376 97.118267 39.9883023 97.1417372 39.9883023L100.321574 39.9883023C99.7446606 38.9155581 98.9459159 38.2273968 98.0646469 38.1789454L98.0426909 38.1789454C98.0192207 38.1789454 97.9965076 38.1789454 97.9730373 38.172889L97.9654663 38.172889C96.14236 38.172889 94.6016534 40.9156924 94.6016534 44.1642073 94.6016534 47.2999212 96.1029906 50.0010867 97.9677376 50.0010867L97.9677376 50.0010867C98.1010891 50.0041919 98.2343197 49.9909715 98.3644601 49.96172L98.3644601 49.96172C99.0950654 49.820151 99.7575314 49.2402484 100.267062 48.3719084L97.0864686 48.3681232ZM86.1781148 54.6743756C86.1781148 53.0194575 86.5407676 51.5000519 87.1419081 50.3016368 87.4030303 49.6957415 87.7768481 49.1449431 88.2434944 48.678515L84.0574666 48.678515 84.0574666 60.5127692 88.2419802 60.5127692C86.99503 59.3241958 86.1781148 57.1764361 86.1781148 54.6743756Z"/><path d="M99.0519105 42.3328958 96.3664627 42.3593926C96.2749368 42.8247255 96.2205066 43.2965907 96.2036854 43.7705396 96.2036854 44.2921492 96.2203417 44.8455551 96.258954 45.2937305 96.2862097 45.5354828 96.3215412 45.7638605 96.3649485 45.9788636L99.041311 45.971293C98.6688159 45.5927665 98.4265426 44.9326162 98.4265426 44.1710207 98.4265426 43.4094253 98.6763869 42.7273205 99.0519105 42.3328958ZM90.7858495 47.6943459C90.7941776 47.6943459 90.8017487 47.6943459 90.8100768 47.6943459 92.0403707 47.752639 93.1290862 48.6262783 93.8824047 49.9935162L95.5245631 49.9935162C94.2768558 48.8056999 93.4599407 46.6571832 93.4599407 44.1543656 93.4599407 41.6121812 94.3116826 39.384931 95.5798317 38.1615332L84.0567095 38.1615332 84.0567095 47.6943459 90.5314626 47.6943459 90.7858495 47.6943459ZM54.9362201 63.5477951 58.780794 63.5477951 62.3096555 57.7805645C62.3096555 57.7805645 54.9581761 57.7805645 54.9362201 57.7767792L54.9362201 63.5477951Z"/><path d="M100.968141 45.4625533C100.729653 45.9690219 100.354886 46.3006111 99.9263655 46.3195375L99.7416322 46.3316503 98.6271751 46.3316503 98.6271751 46.3316503 98.0116496 46.3316503 96.4436873 46.3361926C96.6170641 47.0175404 96.834353 47.4929698 97.1250809 47.7821641 97.2393041 47.9240392 97.4087658 48.0102798 97.5906998 48.0191217L97.8844562 48.0191217 101.518555 48.0191217C101.140003 47.6269682 100.887888 46.9463774 100.887888 46.1734262 100.88921 45.9342849 100.916114 45.6959712 100.968141 45.4625533L100.968141 45.4625533ZM102.311243 40.2986941C101.740387 40.2986941 101.278553 41.1314525 101.278553 42.1549883 101.278553 43.1785241 101.740387 44.0112825 102.311243 44.0112825 102.882099 44.0112825 103.343933 43.1785241 103.343933 42.1549883 103.343933 41.1314525 102.881342 40.2986941 102.311243 40.2986941ZM102.311243 44.3390865C101.740387 44.3390865 101.278553 45.171845 101.278553 46.1953808 101.278553 47.2189166 101.740387 48.051675 102.311243 48.051675 102.882099 48.051675 103.343933 47.2189166 103.343933 46.1953808 103.343933 45.171845 102.881342 44.3390865 102.311243 44.3390865ZM63.2651207 42.1398472C63.2348366 42.1398472 63.2045524 42.1353049 63.1750253 42.1322767L63.1704827 42.1322767C60.9453542 42.1322767 59.064708 45.4807226 59.064708 49.4461668 59.064708 52.9392099 60.601629 55.9416825 62.5413293 56.4867607L62.5413293 56.4867607C62.7391475 56.5465483 62.9449087 56.5759043 63.1515551 56.5739253L63.1772967 56.5739253C63.4632372 56.5722166 63.7461208 56.5148722 64.010111 56.404999L64.010111 56.404999C65.8150468 55.7009396 67.1831337 52.7802287 67.1831337 49.3545634 67.1808624 45.4686098 65.4243812 42.2337218 63.2651207 42.1398472ZM77.3661819 31.8991898C76.6704033 31.8991898 76.1056038 32.913641 76.1056038 34.1650498 76.1056038 35.4164586 76.6704033 36.4309097 77.3661819 36.4309097 78.0619604 36.4309097 78.62676 35.4164586 78.62676 34.1650498 78.62676 32.913641 78.0627175 31.8991898 77.3661819 31.8991898ZM77.3661819 36.8306338C76.6704033 36.8306338 76.1056038 37.845085 76.1056038 39.0964937 76.1056038 40.3479025 76.6704033 41.3615966 77.3661819 41.3615966 78.0619604 41.3615966 78.62676 40.3479025 78.62676 39.0964937 78.62676 37.845085 78.0627175 36.8306338 77.3661819 36.8306338ZM75.7270518 38.202414C75.4355668 38.8201694 74.9790331 39.2251928 74.4551172 39.2479044L74.227986 39.2630454 73.6412304 39.2577461 72.1194515 39.2577461 70.2054927 39.2630454C70.4167247 40.0958038 70.6824682 40.6749495 71.038307 41.0277362 71.1881349 41.2142906 71.4153216 41.3217366 71.6545896 41.3192017L76.4031456 41.3192017C75.9375267 40.8399871 75.6346851 40.0094998 75.6346851 39.0639405 75.6348201 38.7743015 75.6657834 38.4854995 75.7270518 38.202414Z"/><ellipse cx="99.866" cy="44.141" rx="1.03" ry="1.837"/><path d="M68.3187896 47.9593145 70.1615806 44.9477572 67.6305821 44.9477572C67.9888349 45.9177535 68.2201551 46.9299977 68.3187896 47.9593145ZM70.9890953 41.7492078C70.048015 40.6938758 69.4165903 38.9481113 69.4998718 36.0652531 69.5475693 34.4232049 69.916279 32.7902413 70.9731961 31.5342902 70.9913666 31.5123357 71.0284647 31.5176351 71.0572346 31.5176351L74.934364 31.5176351C74.2295002 30.2079332 73.2551074 29.3683613 72.1792627 29.3085541 72.1701774 29.3085541 72.1618493 29.3085541 72.152764 29.3085541 72.1239941 29.3085541 72.0959812 29.3047688 72.0679684 29.3017406L72.058126 29.3017406C69.8329975 29.3017406 67.9531084 32.6494295 67.9531084 36.6148737 67.9531084 40.4410201 69.7853 43.7387434 72.0603974 43.7387434L72.0603974 43.7387434C72.2232489 43.7425361 72.3859577 43.7265205 72.5449439 43.6910491L72.5449439 43.6910491C73.4375695 43.518441 74.2453994 42.8113534 74.8684959 41.7529931L70.9890953 41.7492078ZM101.164231 44.8750801C101.250118 44.6892947 101.365702 44.5187424 101.506441 44.3701257L101.235398 44.3701257C101.225023 44.5400564 101.201226 44.7089008 101.164231 44.8750801L101.164231 44.8750801ZM101.23767 43.9847857 101.488271 43.9847857C101.37129 43.8614203 101.272156 43.7222863 101.193758 43.5714347 101.217061 43.7081595 101.231728 43.8462166 101.23767 43.9847857ZM97.3961241 40.3857552 97.3961241 40.3857552C97.0410424 40.5144542 96.6821751 41.1057127 96.4520155 42.0043347L99.8082573 41.9710244 99.8082573 41.9710244C99.8671466 41.9685335 99.9261409 41.9708121 99.9846625 41.9778379L99.9846625 41.9778379C100.363215 42.0194758 100.690283 42.2988284 100.918172 42.7258064 100.88929 42.5458074 100.874859 42.3637861 100.875017 42.1814852 100.875017 41.4085339 101.126375 40.7271861 101.506441 40.3350326L97.6126558 40.3350326C97.5378432 40.3375231 97.4642587 40.3547603 97.3961241 40.3857552L97.3961241 40.3857552Z"/><ellipse cx="40.101" cy="27.137" fill="#000" fill-rule="nonzero" rx="1" ry="2.002"/><path fill="#000" fill-rule="nonzero" d="M36.7096995,31.8719359 C37.2328583,31.8719359 37.6560794,30.9839126 37.6560794,29.8892138 C37.6560794,28.794515 37.2328583,27.9064917 36.7096995,27.9064917 C36.1865406,27.9064917 35.7640766,28.794515 35.7640766,29.8892138 C35.7640766,30.9839126 36.1895691,31.8719359 36.7096995,31.8719359 Z"/><ellipse cx="40.101" cy="32.74" fill="#000" fill-rule="nonzero" rx="1" ry="2.002"/><path fill="#000" fill-rule="nonzero" d="M77.3661819 32.4018731C76.9051056 32.4018731 76.5333675 33.1907224 76.5333675 34.1642927 76.5333675 35.137863 76.9073769 35.9267124 77.3661819 35.9267124 77.8249869 35.9267124 78.1989962 35.137863 78.1989962 34.1642927 78.1989962 33.1907224 77.8302866 32.4018731 77.3661819 32.4018731ZM74.3816781 38.3333842C74.8419973 38.3333842 75.2144924 37.5521054 75.2144924 36.5883768 75.2144924 35.6246482 74.8419973 34.8433694 74.3816781 34.8433694 73.9213589 34.8433694 73.5488637 35.6246482 73.5488637 36.5883768 73.5488637 37.5521054 73.922116 38.3333842 74.3816781 38.3333842ZM77.3661819 37.3340741C76.9051056 37.3340741 76.5333675 38.1229234 76.5333675 39.0964937 76.5333675 40.070064 76.9073769 40.8589134 77.3661819 40.8589134 77.8249869 40.8589134 78.1989962 40.070064 78.1989962 39.0964937 78.1989962 38.1229234 77.8302866 37.3340741 77.3661819 37.3340741ZM102.311243 40.711288C101.932691 40.711288 101.629849 41.3578114 101.629849 42.1549883 101.629849 42.9521652 101.932691 43.5994456 102.311243 43.5994456 102.689795 43.5994456 102.992637 42.9529223 102.992637 42.1549883 102.992637 41.3570543 102.689038 40.711288 102.311243 40.711288ZM99.8657972 45.5700549C100.244349 45.5700549 100.547191 44.930345 100.547191 44.1407386 100.547191 43.3511322 100.244349 42.7106653 99.8657972 42.7106653 99.4872452 42.7106653 99.1844037 43.3511322 99.1844037 44.1407386 99.1844037 44.930345 99.4895166 45.5700549 99.8657972 45.5700549ZM102.311243 44.7509234C101.932691 44.7509234 101.629849 45.3974468 101.629849 46.1953808 101.629849 46.9933147 101.932691 47.639081 102.311243 47.639081 102.689795 47.639081 102.992637 46.9925577 102.992637 46.1953808 102.992637 45.3982038 102.689038 44.7509234 102.311243 44.7509234Z"/><path fill="#000" fill-rule="nonzero" d="M103.806523,37.8844517 L102.504305,40.0042004 C102.475024,39.9981816 102.445459,39.9936335 102.415723,39.9905735 L102.373326,39.9905735 L102.255974,39.9860311 L101.414832,39.9860311 C100.681198,38.3712369 99.522072,37.3007638 98.1835122,37.1940193 C98.1441428,37.1834205 97.8632573,37.1766071 97.8564433,37.1766071 C97.8423209,37.1758499 97.828168,37.1758499 97.8140455,37.1766071 L84.0574666,37.1766071 L84.0574666,31.5691147 L79.2877117,30.0360821 L78.1846113,31.8378685 C77.9929039,31.6648275 77.7515993,31.5564993 77.4948895,31.5282338 L77.4434065,31.5236915 L77.3003138,31.5183921 L76.2736809,31.5183921 C75.378784,29.550054 73.9607283,28.2411092 72.3299264,28.1116531 C72.2814717,28.0995403 71.9385036,28.0904556 71.9301755,28.0904556 C71.9218473,28.0904556 71.8961058,28.0904556 71.8779353,28.0904556 L54.9657472,28.0904556 L54.9362201,28.0904556 L54.9362201,22.2323787 L44.3867336,18.7650754 L40.9040554,24.3975506 C40.7108323,24.2541179 40.482495,24.1654568 40.2431036,24.1409096 L40.1848066,24.1356102 L40.0220293,24.1295538 L38.8560892,24.1295538 C37.8385415,21.8901907 36.2281814,20.4063666 34.375548,20.2572271 C34.3210365,20.2436002 33.9303709,20.2337585 33.9212856,20.2337585 C33.9122004,20.2337585 33.8826733,20.2337585 33.8622315,20.2337585 L15.388895,20.2337585 L15.388895,9.53281276 L15.388895,9.53281276 L15.3692103,9.52675633 L9.533453,7.64623641 L9.533453,69.3945162 L20.1389652,69.3945162 L46.9480163,26.0910784 L49.4767435,26.869329 L49.4767435,69.4081432 L62.0749533,69.4081432 L78.5518067,42.6697844 L78.5518067,69.3937592 L90.8168907,69.3937592 L109.115336,39.613561 L103.806523,37.8844517 Z M38.9817684,24.6186101 C38.4555812,25.1629313 38.1073134,26.1069765 38.1073134,27.1789637 C38.1066618,27.43252 38.126665,27.6857081 38.1671246,27.9360168 C37.8506551,27.3447583 37.3926072,26.9563901 36.8717197,26.8996111 C36.8330744,26.8917684 36.7937952,26.8874607 36.7543686,26.8867412 C36.7117482,26.8844873 36.6690385,26.8844873 36.626418,26.8867412 L36.626418,26.8867412 L31.9725,26.9321644 C32.2919979,25.686812 32.7894152,24.8669235 33.2822899,24.688259 L33.2868325,24.688259 C33.3813771,24.6474472 33.4829336,24.6253377 33.5858886,24.6231524 L38.9817684,24.6186101 Z M38.6123017,29.6764819 C38.6042442,29.4838966 38.5842689,29.291995 38.5524905,29.1018786 C38.6608369,29.3114074 38.7982184,29.5045952 38.9605695,29.6757248 L38.6123017,29.6764819 Z M38.9847969,30.2102043 C38.7898671,30.4163725 38.6297923,30.6528889 38.5108498,30.9104785 C38.5629172,30.6787856 38.5968373,30.4433856 38.6123017,30.2064191 L38.9847969,30.2102043 Z M35.2810443,29.8907279 C35.2810443,28.4833662 35.9207972,27.3424872 36.7096995,27.3424872 C37.4986018,27.3424872 38.1375975,28.4833662 38.1375975,29.8907279 C38.1375975,31.2980897 37.4978447,32.4389687 36.7089424,32.4389687 C35.9200401,32.4389687 35.2810443,31.2980897 35.2810443,29.8907279 Z M35.5649583,32.429127 L31.8551489,32.4397258 C31.7953377,32.1422039 31.7461259,31.8249986 31.7075136,31.4903812 C31.6552735,30.8688405 31.6272606,30.1004316 31.6318033,29.3774459 C31.6552328,28.7201081 31.7311852,28.0656956 31.8589344,27.4204636 L35.5831288,27.3841251 C35.0614842,27.9307174 34.7154877,28.8724915 34.7154877,29.9331229 C34.7154877,30.9937543 35.0493705,31.9007039 35.5657154,32.429127 L35.5649583,32.429127 Z M15.3911663,21.6070528 L30.8201878,21.6070528 C30.6514899,21.7693025 30.4915163,21.9403845 30.340941,22.1195778 C30.1864918,22.3017752 30.0378471,22.4953285 29.8950068,22.7002375 C29.4961631,23.2800802 29.1603769,23.9008496 28.8933582,24.5519894 C28.8221905,24.7223264 28.7540511,24.8972056 28.6896973,25.0751131 C28.6253434,25.2530206 28.564018,25.4354704 28.5072352,25.6201913 C28.4209254,25.8977775 28.3429437,26.1826818 28.2732901,26.4749043 C28.0088828,27.6034315 27.8767621,28.7589014 27.879596,29.9179818 C27.874557,31.1494354 28.0256683,32.3765598 28.3293158,33.570006 C28.4459551,34.0233863 28.5890402,34.4695492 28.7578366,34.9062048 C28.7911492,34.9909947 28.8244618,35.0750276 28.8592886,35.1575464 C28.9279327,35.3230887 29.0001099,35.4850981 29.0758203,35.6435745 C29.1136755,35.7192798 29.1515307,35.8002845 29.1909001,35.8775039 C29.5833717,36.6713186 30.1065008,37.3935159 30.7384206,38.0139078 L28.4118401,38.0139078 C27.3677938,36.121275 25.8581285,34.9062048 24.1523733,34.8267142 C24.1523733,34.8267142 23.9252421,34.8130873 23.7670074,34.8130873 L15.3911663,34.8130873 L15.3911663,21.6070528 Z M15.3790526,36.1871386 L20.5932276,36.1871386 C19.9784592,36.7791542 19.4689282,37.5422637 19.0661489,38.4355864 C18.2333346,40.0965609 17.7291033,42.2041968 17.7291033,44.4980677 C17.7291033,47.9676421 18.8647593,50.9466461 20.5917134,52.5939936 L15.3790526,52.5939936 L15.3790526,36.1871386 Z M16.4904812,63.902853 L15.3919234,63.902853 L15.3919234,53.9665309 L22.6305943,53.9665309 L16.4904812,63.902853 Z M24.9246193,52.400188 L24.9246193,52.400188 C24.6251323,52.5249151 24.3041736,52.5899769 23.9797536,52.591851 L23.9509836,52.591851 C23.7161661,52.594194 23.4823337,52.5610104 23.2574764,52.4933056 L23.2574764,52.4933056 C21.055061,51.8763073 19.3061509,48.465026 19.3061509,44.4973106 C19.3061509,39.9920876 21.4449695,36.1871386 23.9729396,36.1871386 L23.9774823,36.1871386 C24.0115519,36.1909239 24.0456216,36.1939521 24.0804484,36.1954662 C26.5334652,36.3022107 28.5291912,39.9807318 28.5291912,44.388295 C28.5291912,48.2818191 26.9748568,51.5992259 24.9246193,52.399431 L24.9246193,52.400188 Z M29.7761415,42.407087 C29.6481225,41.3761135 29.4009158,40.3634724 29.0394793,39.3894733 L31.6416456,39.3894733 L29.7761415,42.407087 Z M34.6216068,37.9586429 L34.6216068,37.9586429 C34.4410112,37.9989801 34.2561922,38.0172828 34.0711922,38.0131507 L34.0711922,38.0131507 C31.4864393,38.0131507 29.4044034,34.267252 29.4044034,29.920253 C29.4044034,25.4150299 31.5401937,21.6115951 34.0681638,21.6115951 L34.0795203,21.6115951 C34.1113187,21.6153804 34.1438742,21.6184086 34.1756725,21.6199227 L34.2059567,21.6199227 C35.4286796,21.6873004 36.5355656,22.6411874 37.3358244,24.1287967 L32.9340221,24.1287967 C32.9014666,24.1287967 32.8583117,24.1227403 32.838627,24.1484801 C31.6378601,25.5747682 31.2191816,27.4303053 31.1654272,29.2964412 C31.0707892,32.5752383 31.7877667,34.5556892 32.8567975,35.7541043 L37.2646567,35.7541043 C36.5560074,36.9563046 35.6376403,37.760295 34.6238781,37.9563718 L34.6216068,37.9586429 Z M33.9629263,35.2673191 L33.6154156,35.2673191 C33.3436347,35.2702665 33.0856213,35.1479697 32.9158516,34.9357299 C32.5108009,34.5352488 32.2087165,33.8758555 31.9687145,32.9310532 L34.1431171,32.9249968 L35.6368832,32.9249968 L36.5370798,32.9310532 L36.7929809,32.9143981 C37.3880646,32.8879012 37.9066808,32.42837 38.2382924,31.7258247 C38.167852,32.0491447 38.132317,32.3790904 38.1322978,32.7099937 C38.1322978,33.7812239 38.4805656,34.7252691 39.0067529,35.2695903 L33.9629263,35.2673191 Z M40.0954684,35.3157705 C39.3042947,35.3157705 38.6630277,34.1635357 38.6630277,32.7417899 C38.6630277,31.3200442 39.3042947,30.1678094 40.0954684,30.1678094 C40.886642,30.1678094 41.5271519,31.3200442 41.5271519,32.7417899 C41.5271519,34.1635357 40.8911846,35.3134994 40.1007681,35.3134994 L40.0954684,35.3157705 Z M40.0954684,29.7135775 C39.3042947,29.7135775 38.6630277,28.5613427 38.6630277,27.1395969 C38.6630277,25.7178512 39.3042947,24.5656164 40.0954684,24.5656164 C40.886642,24.5656164 41.5271519,25.7178512 41.5271519,27.1395969 C41.5271519,28.5613427 40.8911846,29.7113063 40.1007681,29.7113063 L40.0954684,29.7135775 Z M76.3819467,31.9476412 C75.9185991,32.4260988 75.611972,33.2573431 75.611972,34.2006313 C75.6116821,34.423232 75.6291509,34.6455012 75.6642122,34.8653239 C75.386355,34.3444714 74.9828186,34.0030404 74.5240136,33.9530749 L74.5240136,33.9530749 C74.489859,33.9485179 74.4554906,33.9457383 74.4210475,33.9447473 C74.3834783,33.942499 74.3458082,33.942499 74.308239,33.9447473 L74.308239,33.9447473 L70.2115495,33.9848711 C70.4931922,32.8879012 70.9300412,32.1679437 71.3638617,32.0089625 L71.3684043,32.0089625 C71.4514825,31.973234 71.5407006,31.9539519 71.6311194,31.9521835 L76.3819467,31.9476412 Z M76.056392,36.3991135 C76.0484461,36.2296318 76.0304967,36.0607673 76.0026377,35.893402 C76.0984031,36.0776497 76.2194485,36.2476115 76.362262,36.3983565 L76.056392,36.3991135 Z M76.3834609,36.8677294 C76.2121099,37.04961 76.0712433,37.2579558 75.9662967,37.4847277 C76.0113816,37.281394 76.0404927,37.0748457 76.0533636,36.8669723 L76.3834609,36.8677294 Z M73.1279139,36.5876197 C73.1279139,35.3490809 73.6911993,34.3444714 74.3854636,34.3444714 C75.0797279,34.3444714 75.6422562,35.3490809 75.6422562,36.5876197 C75.6422562,37.8261586 75.0789708,38.8307681 74.3847065,38.8307681 C73.6904422,38.8307681 73.1248855,37.8269157 73.1248855,36.5883768 L73.1279139,36.5876197 Z M73.3777582,38.8224405 L70.1116118,38.8315252 C70.0593716,38.5695848 70.0154596,38.2902322 69.982147,37.9987667 C69.9352066,37.4514173 69.9109792,36.7753689 69.9147647,36.1394443 C69.932853,35.5600977 69.9974141,34.9831373 70.1078263,34.4141203 L73.3853293,34.382324 C72.9265243,34.8630528 72.6221685,35.6920259 72.6221685,36.6262294 C72.6221685,37.560433 72.9204675,38.358367 73.3747298,38.8231976 L73.3777582,38.8224405 Z M54.9331917,29.2979553 L69.151604,29.2979553 C67.6018122,30.7885929 66.5630655,33.5094418 66.5630655,36.6133595 C66.5630655,39.6673118 67.5594143,42.2912579 69.0827075,43.7395005 L67.0794104,43.7395005 C66.1602862,42.0739836 64.8315688,41.0042676 63.3302316,40.9338616 C63.3196322,40.9338616 63.3105469,40.9300764 63.2999475,40.9300764 L63.1719969,40.9225058 L63.1719969,40.9225058 C63.1273278,40.9225058 63.0841729,40.9225058 63.0395037,40.9270482 C63.0241967,40.9247483 63.0087822,40.9232322 62.9933204,40.9225058 L54.9331917,40.9225058 L54.9331917,29.2979553 Z M60.1943071,56.5730648 L54.9362201,56.5730648 L54.9362201,42.1300056 L60.1950642,42.1300056 C59.6544919,42.6516151 59.2062864,43.3231213 58.8512047,44.1089424 C58.1168138,45.571569 57.6746651,47.4263491 57.6746651,49.4454098 C57.6746651,52.5001191 58.6755565,55.121794 60.1943071,56.5723077 L60.1943071,56.5730648 Z M58.780794,63.5485521 L54.9362201,63.5485521 L54.9362201,57.7767792 C54.9581761,57.7767792 62.3096555,57.7805645 62.3096555,57.7805645 L58.780794,63.5485521 Z M64.0048113,56.4019708 L64.0048113,56.4019708 C63.7408211,56.511844 63.4579374,56.5691884 63.1719969,56.5708971 L63.1462554,56.5708971 C62.939609,56.5728761 62.7338478,56.5435201 62.5360296,56.4837325 L62.5360296,56.4837325 C60.5963293,55.9409254 59.0594082,52.9384528 59.0594082,49.4431386 C59.0594082,45.4776944 60.9400545,42.1292485 63.165183,42.1292485 L63.1697256,42.1292485 C63.1992527,42.1292485 63.2295368,42.1353049 63.259821,42.136819 C65.4190815,42.2306936 67.175578,45.4678527 67.175578,49.3477499 C67.1808624,52.7764434 65.8127755,55.6971543 64.0078397,56.4004567 L64.0048113,56.4019708 Z M68.3187896,47.9593145 C68.2201551,46.9299977 67.9888349,45.9177535 67.6305821,44.9477572 L70.1615806,44.9477572 L68.3187896,47.9593145 Z M72.545701,43.6880209 L72.545701,43.6880209 C72.3867148,43.7234923 72.224006,43.7395079 72.0611545,43.7357152 L72.0611545,43.7357152 C69.7898426,43.7357152 67.9538655,40.4379919 67.9538655,36.6118454 C67.9538655,32.6464013 69.8337546,29.2987124 72.0588831,29.2987124 L72.0687255,29.2987124 C72.0967383,29.2987124 72.1247512,29.3047688 72.1535211,29.3055259 C72.1626064,29.3055259 72.1709345,29.3055259 72.1800198,29.3055259 C73.2558645,29.3653331 74.2302573,30.204905 74.9351211,31.5146069 L71.0572346,31.5146069 C71.0284647,31.5146069 70.9913666,31.5093075 70.9731961,31.531262 C69.9132505,32.7872131 69.5475693,34.4201767 69.4998718,36.0622249 C69.4165903,38.9481113 70.048015,40.6908476 70.9890953,41.7461796 L74.869253,41.7461796 C74.2461565,42.8083251 73.4390837,43.5154127 72.545701,43.6880209 Z M71.9657594,41.3192017 L71.6545896,41.3192017 C71.4153216,41.3217366 71.1881349,41.2142906 71.038307,41.0277362 C70.6824682,40.6749495 70.4167247,40.0927756 70.2054927,39.2630454 L72.1194515,39.2577461 L73.6435017,39.2577461 L74.2302573,39.2630454 L74.4573885,39.2479044 C74.9813044,39.2251928 75.4416236,38.8201694 75.7293231,38.202414 C75.6672911,38.4854175 75.6355664,38.7742205 75.6346851,39.0639405 C75.6346851,40.0072286 75.9375267,40.8377159 76.4039027,41.3169305 L71.9657594,41.3192017 Z M77.3661819,41.3615966 C76.6704033,41.3615966 76.1056038,40.3479025 76.1056038,39.0964937 C76.1056038,37.845085 76.6704033,36.8306338 77.3661819,36.8306338 C78.0619604,36.8306338 78.62676,37.845085 78.62676,39.0964937 C78.62676,40.3479025 78.0627175,41.3615966 77.3661819,41.3615966 L77.3661819,41.3615966 Z M77.3661819,36.4309097 C76.6704033,36.4309097 76.1056038,35.4164586 76.1056038,34.1650498 C76.1056038,32.913641 76.6704033,31.8991898 77.3661819,31.8991898 C78.0619604,31.8991898 78.62676,32.913641 78.62676,34.1650498 C78.62676,35.4164586 78.0627175,36.4309097 77.3661819,36.4309097 L77.3661819,36.4309097 Z M101.504927,40.3388179 C101.126375,40.7309714 100.873503,41.4123192 100.873503,42.1852704 C100.873345,42.3675714 100.887776,42.5495927 100.916658,42.7295916 C100.689526,42.3026137 100.358672,42.0232611 99.9831483,41.9816231 L99.9831483,41.9816231 C99.9246267,41.9745974 99.8656324,41.9723188 99.8067431,41.9748097 L99.8067431,41.9748097 L96.4505013,42.00812 C96.6776325,41.109498 97.0395282,40.5182395 97.3946099,40.3895405 L97.3946099,40.3895405 C97.4625413,40.3600415 97.5355818,40.3440971 97.6096274,40.3426032 L101.504927,40.3388179 Z M101.23767,43.9847857 C101.23176,43.8459634 101.217093,43.7076524 101.193758,43.5706776 C101.272156,43.7215293 101.37129,43.8606633 101.488271,43.9840286 L101.23767,43.9847857 Z M101.506441,44.3693687 C101.365702,44.5179853 101.250118,44.6885376 101.164231,44.8743231 C101.201266,44.7078953 101.225063,44.5387963 101.235398,44.3686116 L101.506441,44.3693687 Z M98.8361358,44.1422527 C98.8361358,43.1270445 99.2972121,42.3041278 99.8665543,42.3041278 C100.435896,42.3041278 100.896216,43.1270445 100.896216,44.1422527 C100.896216,45.1574609 100.435139,45.9796206 99.8657972,45.9796206 C99.296455,45.9796206 98.8361358,45.1551898 98.8361358,44.1407386 L98.8361358,44.1422527 Z M99.041311,45.9728071 L96.3649485,45.9803777 C96.3215412,45.7653746 96.2862097,45.5369969 96.258954,45.2952446 C96.2203417,44.8470692 96.200657,44.2936633 96.2036854,43.7720538 C96.2205066,43.2981048 96.2749368,42.8262396 96.3664627,42.3609068 L99.0519105,42.3344099 C98.6733585,42.7288346 98.4265426,43.4079112 98.4265426,44.1725348 C98.4265426,44.9371585 98.6688159,45.5904953 99.041311,45.971293 L99.041311,45.9728071 Z M84.0574666,38.1668325 L95.5805888,38.1668325 C94.3116826,39.3879592 93.4606978,41.6174806 93.4606978,44.1596649 C93.4606978,46.6624825 94.2776129,48.8109992 95.5253202,49.9988156 L93.8808905,49.9988156 C93.1237865,48.6315777 92.0388565,47.7579384 90.8085626,47.6996453 C90.8002345,47.6996453 90.7926634,47.6996453 90.7843353,47.6996453 L90.5307054,47.6935889 L84.0559524,47.6935889 L84.0574666,38.1668325 Z M84.0574666,48.6807861 L88.2434944,48.6807861 C87.7773568,49.146607 87.4038117,49.6966113 87.1426653,50.3016368 C86.5415247,51.5000519 86.1788719,53.0194575 86.1788719,54.6743756 C86.1788719,57.1726508 86.9957871,59.3241958 88.2427373,60.5127692 L84.0582237,60.5127692 L84.0574666,48.6807861 Z M88.0701176,63.5364393 L84.0574666,63.5364393 L84.0574666,61.5029946 L89.3208533,61.5029946 L88.0701176,63.5364393 Z M91.3635198,60.3727143 L91.3635198,60.3727143 C91.1476069,60.462917 90.9161227,60.5099823 90.6821262,60.511336 L90.6609273,60.511336 C90.4914768,60.512919 90.3227504,60.4889262 90.1604816,60.4400921 L90.1604816,60.4400921 C88.5705633,59.9941878 87.3122565,57.5345222 87.3122565,54.6736185 C87.3122565,51.4243466 88.8529631,48.6815432 90.6760694,48.6815432 L90.6760694,48.6815432 C90.7002967,48.6815432 90.7252812,48.6868425 90.7517798,48.6875996 C92.5203746,48.7633049 93.9596602,51.4129908 93.9596602,54.5926138 C93.9664432,57.403552 92.8459293,59.7958399 91.3673053,60.3727143 L91.3635198,60.3727143 Z M94.7704876,52.6045924 C94.6711119,52.0539152 94.5226316,51.5132399 94.3268247,50.989041 L95.7653222,50.989041 L94.7704876,52.6045924 Z M98.3546177,49.9549065 L98.3546177,49.9549065 C98.2244774,49.984158 98.0912468,49.9973785 97.9578953,49.9942733 L97.9578953,49.9942733 C96.0931482,49.9942733 94.5918111,47.2931078 94.5918111,44.1573938 C94.5918111,40.9088789 96.1325176,38.1660755 97.9556239,38.1660755 L97.963195,38.1660755 C97.9866652,38.1660755 98.0093783,38.1713748 98.0328485,38.1721319 L98.0548046,38.1721319 C98.9360736,38.2205833 99.7348182,38.9087446 100.311731,39.9814888 L97.1318948,39.9814888 C97.1084246,39.9814888 97.0781405,39.9769465 97.0629984,39.9951158 C96.1976286,41.024708 95.8955441,42.3624209 95.8569318,43.704676 C95.7880353,46.0689529 96.3051373,47.4975121 97.0766262,48.3613097 L100.256463,48.3613097 C99.75526,49.235706 99.0927941,49.8140946 98.3621888,49.9571777 L98.3546177,49.9549065 Z M97.8791564,48.0138223 L97.5854001,48.0138223 C97.403466,48.0049804 97.2340043,47.9187399 97.1197812,47.7768647 C96.827539,47.4876704 96.6102502,47.010727 96.4383876,46.3308933 L98.0063499,46.3263509 L98.6218754,46.3263509 L98.6218754,46.3263509 L99.7363324,46.3263509 L99.9210658,46.3142381 C100.349587,46.2953118 100.724353,45.9637225 100.962841,45.457254 C100.912556,45.6898472 100.887176,45.9271325 100.88713,46.1650986 C100.88713,46.9380499 101.138489,47.6186406 101.517798,48.0107941 L97.8791564,48.0138223 Z M102.303672,48.0494038 C101.732816,48.0494038 101.270982,47.2166454 101.270982,46.1931096 C101.270982,45.1695738 101.732816,44.3368154 102.303672,44.3368154 C102.874528,44.3368154 103.336362,45.1695738 103.336362,46.1931096 C103.336362,47.2166454 102.881342,48.051675 102.311243,48.051675 L102.303672,48.0494038 Z M102.303672,44.0090114 C101.732816,44.0090114 101.270982,43.176253 101.270982,42.1527171 C101.270982,41.1291813 101.732816,40.2964229 102.303672,40.2964229 C102.874528,40.2964229 103.336362,41.1291813 103.336362,42.1527171 C103.336362,43.176253 102.881342,44.0112825 102.311243,44.0112825 L102.303672,44.0090114 Z"/><path fill="#FFF" fill-rule="nonzero" d="M54.9362201 57.7767792 54.9362201 63.5477951 58.780794 63.5477951 62.3096555 57.7805645C62.3096555 57.7805645 54.9581761 57.7790504 54.9362201 57.7767792ZM68.3187896 47.9593145 70.1615806 44.9477572 67.6305821 44.9477572C67.9884778 45.9178597 68.2197873 46.9300571 68.3187896 47.9593145ZM41.542294 9.53281276 15.3919234 9.53281276 15.3919234 20.2337585 33.8652599 20.2337585C33.8857017 20.2337585 33.9046293 20.2337585 33.924314 20.2337585 33.9439987 20.2337585 34.3240649 20.2436002 34.3785764 20.2572271 36.2312098 20.4086377 37.8415699 21.8901907 38.8591176 24.1295538L40.0250577 24.1295538 40.187835 24.1356102 40.2461321 24.1409096C40.4855234 24.1654568 40.7138607 24.2541179 40.9070838 24.3975506L44.389762 18.7650754 54.9392485 22.2323787 54.9392485 28.0866704 54.9687756 28.0866704 71.8764211 28.0866704C71.8945916 28.0866704 71.9112479 28.0866704 71.9286613 28.0866704 71.9460747 28.0866704 72.2799575 28.095755 72.3284122 28.1078679 73.9592141 28.238838 75.3772698 29.5462688 76.2721667 31.5146069L77.3003138 31.5146069 77.4434065 31.5199062 77.4948895 31.5244485C77.7515993 31.552714 77.9929039 31.6610422 78.1846113 31.8340833L79.2877117 30.0322969 84.0574666 31.5653294 84.0574666 37.1735788 97.817831 37.1735788C97.8319535 37.1728217 97.8461064 37.1728217 97.8602288 37.1735788 97.8670428 37.1735788 98.1479283 37.1803923 98.1872977 37.1909911 99.5235862 37.2977356 100.685741 38.3682087 101.418617 39.9830029L102.25976 39.9830029 102.377111 39.9875453 102.419509 39.9875453C102.449245 39.9906053 102.478809 39.9951534 102.50809 40.0011722L103.810309 37.8814235 109.12215 39.6112899 114.470333 39.6112899 114.470333 9.53281276 41.542294 9.53281276Z"/><polygon fill="#FFF" fill-rule="nonzero" points="15.392 63.902 16.49 63.902 22.631 53.967 15.392 53.967"/><path fill="#FFF" fill-rule="nonzero" d="M29.7761415 42.4048158 31.6416456 39.3872021 29.0394793 39.3872021C29.4009158 40.3612013 29.6481225 41.3738423 29.7761415 42.4048158L29.7761415 42.4048158ZM94.7780586 52.6045924 95.7691077 50.989041 94.3306102 50.989041C94.5277052 51.5131175 94.6774531 52.0537954 94.7780586 52.6045924Z"/><polygon fill="#FFF" fill-rule="nonzero" points="84.057 63.536 88.074 63.536 89.321 61.503 84.057 61.503"/><path fill="#FFF" fill-rule="nonzero" d="M38.6123017 29.6764819 38.9605695 29.6764819C38.7982184 29.5053522 38.6608369 29.3121645 38.5524905 29.1026356 38.5842378 29.2925021 38.604213 29.4841499 38.6123017 29.6764819L38.6123017 29.6764819ZM33.2845612 24.6837166 33.2800186 24.6837166C32.7871439 24.8623812 32.2897266 25.6822697 31.9702287 26.9276221L36.6241467 26.8821989 36.6241467 26.8821989C36.6667671 26.879945 36.7094769 26.879945 36.7520973 26.8821989 36.7915239 26.8829183 36.8308031 26.8872261 36.8694484 26.8950688 37.3903359 26.9518478 37.8483838 27.340216 38.1648533 27.9314745 38.1243937 27.6811658 38.1043905 27.4279777 38.1050421 27.1744214 38.1050421 26.1024342 38.4533099 25.1583889 38.9794971 24.6140678L33.5813459 24.6140678C33.4788583 24.6179788 33.3780881 24.6416273 33.2845612 24.6837166ZM38.5100927 30.9097214C38.6290352 30.6521318 38.78911 30.4156155 38.9840398 30.2094473L38.6123017 30.2064191C38.596549 30.4431516 38.562376 30.6782971 38.5100927 30.9097214L38.5100927 30.9097214ZM38.2382924 31.7205253C37.9066808 32.4230706 37.3880646 32.8826018 36.7929809 32.9090987L36.5370798 32.9257538 35.64294 32.9196974 34.1393316 32.9196974 31.964929 32.9318103C32.2049309 33.8750984 32.5070154 34.5360058 32.912066 34.9364869 33.0818358 35.1487267 33.3398491 35.2710236 33.6116301 35.2680762L39.0067529 35.2680762C38.4767801 34.723755 38.1322978 33.7797098 38.1322978 32.7084796 38.1320456 32.3763109 38.1675822 32.0450817 38.2382924 31.7205253L38.2382924 31.7205253Z"/><path fill="#FFF" fill-rule="nonzero" d="M32.8583117,35.7533472 C31.7892809,34.5549321 31.0723034,32.5737242 31.1669414,29.2956842 C31.2206958,27.4310624 31.6393743,25.5755252 32.8401412,24.147723 C32.8613401,24.1219832 32.9029808,24.1280397 32.9355363,24.1280397 L37.3403671,24.1280397 C36.5401082,22.6404303 35.4332222,21.6865434 34.2104993,21.6191657 L34.1802152,21.6191657 C34.1484168,21.6191657 34.1158613,21.6146233 34.084063,21.6108381 L34.069678,21.6108381 C31.5417079,21.6108381 29.4059176,25.4142729 29.4059176,29.9194959 C29.4059176,34.2664949 31.4879535,38.0123937 34.0727064,38.0123937 L34.0727064,38.0123937 C34.2577064,38.0165258 34.4425254,37.9982231 34.623121,37.9578859 L34.623121,37.9578859 C35.6368832,37.7618091 36.5552503,36.9578187 37.2623854,35.7556184 L32.8583117,35.7533472 Z"/><path fill="#FFF" fill-rule="nonzero" d="M35.5838859 27.3841251 31.8596915 27.4204636C31.7319423 28.0656956 31.6559899 28.7201081 31.6325604 29.3774459 31.6280177 30.1004316 31.6560306 30.8688405 31.7082708 31.4903812 31.7468831 31.8249986 31.7960948 32.1422039 31.855906 32.4397258L35.5657154 32.429127C35.0493705 31.8991898 34.7139735 30.9907261 34.7139735 29.9308517 34.7139735 28.8709774 35.05997 27.9307174 35.5838859 27.3841251ZM17.7291033 44.4973106C17.7291033 42.2034397 18.2318203 40.0958038 19.0661489 38.4348293 19.4689282 37.5415067 19.9746737 36.7783971 20.5932276 36.1863816L15.3790526 36.1863816 15.3790526 52.5932366 20.5932276 52.5932366C18.8617308 50.9496743 17.7291033 47.966885 17.7291033 44.4973106Z"/><path fill="#FFF" fill-rule="nonzero" d="M24.0804484 36.1969803C24.0456216 36.1969803 24.0115519 36.192438 23.9774823 36.1886523L23.9729396 36.1886523C21.4449695 36.1871386 19.3061509 39.9920876 19.3061509 44.4973106 19.3061509 48.465026 21.0527897 51.8763073 23.2559622 52.4933056L23.2559622 52.4933056C23.4808195 52.5610104 23.7146519 52.594194 23.9494694 52.591851L23.9782394 52.591851C24.3026594 52.5899769 24.6236181 52.5249151 24.9231051 52.400188L24.9231051 52.400188C26.9733426 51.5999829 28.5276779 48.2825762 28.5276779 44.3905661 28.5291912 39.9792177 26.5334652 36.3037248 24.0804484 36.1969803ZM40.1007681 24.5633452C39.3095945 24.5633452 38.6683274 25.71558 38.6683274 27.1373258 38.6683274 28.5590715 39.3095945 29.7113063 40.1007681 29.7113063 40.8919417 29.7113063 41.5324517 28.5590715 41.5324517 27.1373258 41.5324517 25.71558 40.8911846 24.5633452 40.1007681 24.5633452ZM40.1007681 29.1397312C39.5760951 29.1397312 39.1513597 28.2433804 39.1513597 27.1373258 39.1513597 26.0312712 39.5760951 25.1341632 40.1007681 25.1341632 40.6254411 25.1341632 41.0494194 26.0305141 41.0494194 27.1365687 41.0494194 28.2426233 40.624684 29.1397312 40.1007681 29.1397312L40.1007681 29.1397312ZM36.7096995 32.4389687C37.4986018 32.4389687 38.1375975 31.2980897 38.1383553 29.8907279 38.1391117 28.4833662 37.4986018 27.3424872 36.7104566 27.3424872 35.9223114 27.3424872 35.2810443 28.4833662 35.2810443 29.8907279 35.2810443 31.2980897 35.9215543 32.4389687 36.7096995 32.4389687ZM36.7096995 27.9080058C37.2328583 27.9080058 37.6560794 28.7960291 37.6560794 29.8907279 37.6560794 30.9854267 37.2328583 31.8719359 36.7096995 31.8719359 36.1865406 31.8719359 35.7640766 30.9839126 35.7640766 29.8892138 35.7640766 28.794515 36.1895691 27.9080058 36.7096995 27.9080058ZM40.1007681 30.1662953C39.3095945 30.1662953 38.6683274 31.3185301 38.6683274 32.7402758 38.6683274 34.1620216 39.3095945 35.3142564 40.1007681 35.3142564 40.8919417 35.3142564 41.5324517 34.1620216 41.5324517 32.7402758 41.5324517 31.3185301 40.8911846 30.1662953 40.1007681 30.1662953ZM40.1007681 34.7419243C39.5760951 34.7419243 39.1513597 33.8455734 39.1513597 32.7395188 39.1513597 31.6334642 39.5760951 30.7363563 40.1007681 30.7363563 40.6254411 30.7363563 41.0494194 31.6334642 41.0494194 32.7387617 41.0494194 33.8440593 40.624684 34.7419243 40.1007681 34.7419243ZM76.056392 36.3998706 76.3592336 36.3998706C76.2164201 36.2491256 76.0953747 36.0791638 75.9996092 35.8949161 76.0284537 36.0619709 76.0474143 36.2305821 76.056392 36.3998706ZM71.3668901 32.0051773 71.3623475 32.0051773C70.9285269 32.1634014 70.491678 32.8841159 70.2100353 33.9810859L74.3067248 33.9409621 74.3067248 33.9409621C74.344294 33.9387137 74.3819641 33.9387137 74.4195333 33.9409621 74.4539764 33.941953 74.4883448 33.9447326 74.5224994 33.9492897L74.5224994 33.9492897C74.9813044 33.9992552 75.3848408 34.3406861 75.662698 34.8615386 75.6276367 34.6417159 75.6101679 34.4194467 75.6104578 34.196846 75.6104578 33.2535578 75.9132994 32.4223135 76.3804325 31.943856L71.6296052 31.943856C71.5388841 31.9470586 71.4496535 31.9678862 71.3668901 32.0051773ZM75.9662967 37.4854847C76.0712433 37.2587128 76.2121099 37.0503671 76.3834609 36.8684864L76.0533636 36.8684864C76.0404534 37.0761058 76.0113426 37.2823995 75.9662967 37.4854847L75.9662967 37.4854847ZM75.7270518 38.202414C75.4355668 38.8201694 74.9790331 39.2251928 74.4551172 39.2479044L74.227986 39.2630454 73.6412304 39.2577461 72.1194515 39.2577461 70.2054927 39.2630454C70.4167247 40.0958038 70.6824682 40.6749495 71.038307 41.0277362 71.1881349 41.2142906 71.4153216 41.3217366 71.6545896 41.3192017L76.4031456 41.3192017C75.9375267 40.8399871 75.6346851 40.0094998 75.6346851 39.0639405 75.6348201 38.7743015 75.6657834 38.4854995 75.7270518 38.202414Z"/><path fill="#FFF" fill-rule="nonzero" d="M70.9890953,41.7492078 C70.048015,40.6938758 69.4165903,38.9481113 69.4998718,36.0652531 C69.5475693,34.4232049 69.916279,32.7902413 70.9731961,31.5342902 C70.9913666,31.5123357 71.0284647,31.5176351 71.0572346,31.5176351 L74.934364,31.5176351 C74.2295002,30.2079332 73.2551074,29.3683613 72.1792627,29.3085541 C72.1701774,29.3085541 72.1618493,29.3085541 72.152764,29.3085541 C72.1239941,29.3085541 72.0959812,29.3047688 72.0679684,29.3017406 L72.058126,29.3017406 C69.8329975,29.3017406 67.9531084,32.6494295 67.9531084,36.6148737 C67.9531084,40.4410201 69.7853,43.7387434 72.0603974,43.7387434 L72.0603974,43.7387434 C72.2232489,43.7425361 72.3859577,43.7265205 72.5449439,43.6910491 L72.5449439,43.6910491 C73.4375695,43.518441 74.2453994,42.8113534 74.8684959,41.7529931 L70.9890953,41.7492078 Z"/><path fill="#FFF" fill-rule="nonzero" d="M73.3883577 34.382324 70.1108547 34.4141203C69.9985293 34.982226 69.9319431 35.5584235 69.9117363 36.1371731 69.9117363 36.7730978 69.9321781 37.4491462 69.9791186 37.9964956 70.0124312 38.2909892 70.054829 38.5703418 70.1085834 38.829254L73.3747298 38.8201694C72.9204675 38.3553388 72.6251969 37.5528625 72.6251969 36.6247153 72.6251969 35.6965682 72.9295527 34.8630528 73.3883577 34.382324ZM60.1950642 42.1300056 54.9362201 42.1300056 54.9362201 56.5723077 60.1943071 56.5723077C58.671771 55.121794 57.6746651 52.5001191 57.6746651 49.4454098 57.6746651 47.4263491 58.1168138 45.571569 58.8512047 44.1089424 59.2055293 43.3231213 59.6544919 42.6516151 60.1950642 42.1300056Z"/><path fill="#FFF" fill-rule="nonzero" d="M63.2651207 42.1398472C63.2348366 42.1398472 63.2045524 42.1353049 63.1750253 42.1322767L63.1704827 42.1322767C60.9453542 42.1322767 59.064708 45.4807226 59.064708 49.4461668 59.064708 52.9392099 60.601629 55.9416825 62.5413293 56.4867607L62.5413293 56.4867607C62.7391475 56.5465483 62.9449087 56.5759043 63.1515551 56.5739253L63.1772967 56.5739253C63.4632372 56.5722166 63.7461208 56.5148722 64.010111 56.404999L64.010111 56.404999C65.8150468 55.7009396 67.1831337 52.7802287 67.1831337 49.3545634 67.1808624 45.4686098 65.4243812 42.2337218 63.2651207 42.1398472ZM77.3661819 31.8991898C76.6704033 31.8991898 76.1056038 32.913641 76.1056038 34.1650498 76.1056038 35.4164586 76.6704033 36.4309097 77.3661819 36.4309097 78.0619604 36.4309097 78.62676 35.4164586 78.62676 34.1650498 78.62676 32.913641 78.0627175 31.8991898 77.3661819 31.8991898ZM77.3661819 35.9274694C76.9051056 35.9274694 76.5333675 35.1386201 76.5333675 34.1650498 76.5333675 33.1914795 76.9073769 32.4026301 77.3661819 32.4026301 77.8249869 32.4026301 78.1989962 33.1914795 78.1989962 34.1650498 78.1989962 35.1386201 77.8302866 35.9274694 77.3661819 35.9274694ZM74.3816781 38.8315252C75.0759424 38.8315252 75.6392278 37.8276727 75.6392278 36.5883768 75.6392278 35.3490809 75.0759424 34.3452284 74.3824352 34.3452284 73.688928 34.3452284 73.1248855 35.3498379 73.1248855 36.5883768 73.1248855 37.8269157 73.6881709 38.8315252 74.3816781 38.8315252ZM74.3816781 34.8433694C74.8419973 34.8433694 75.2144924 35.6246482 75.2144924 36.5883768 75.2144924 37.5521054 74.8419973 38.3333842 74.3816781 38.3333842 73.9213589 38.3333842 73.5488637 37.5521054 73.5488637 36.5883768 73.5488637 35.6246482 73.922116 34.8433694 74.3816781 34.8433694L74.3816781 34.8433694ZM77.3661819 36.8306338C76.6704033 36.8306338 76.1056038 37.845085 76.1056038 39.0964937 76.1056038 40.3479025 76.6704033 41.3615966 77.3661819 41.3615966 78.0619604 41.3615966 78.62676 40.3479025 78.62676 39.0964937 78.62676 37.845085 78.0627175 36.8306338 77.3661819 36.8306338ZM77.3661819 40.8589134C76.9051056 40.8589134 76.5333675 40.070064 76.5333675 39.0964937 76.5333675 38.1229234 76.9073769 37.3340741 77.3661819 37.3340741 77.8249869 37.3340741 78.1989962 38.1229234 78.1989962 39.0964937 78.1989962 40.070064 77.8302866 40.8589134 77.3661819 40.8589134ZM90.8100768 47.6996453C92.0403707 47.7579384 93.1290862 48.6315777 93.8816476 49.9988156L95.5245631 49.9988156C94.2768558 48.8109992 93.4599407 46.6624825 93.4599407 44.1596649 93.4599407 41.6174806 94.3116826 39.3902304 95.5798317 38.1668325L84.0567095 38.1668325 84.0567095 47.6943459 90.5314626 47.6943459 90.8100768 47.6996453ZM101.23767 43.9847857 101.488271 43.9847857C101.37129 43.8614203 101.272156 43.7222863 101.193758 43.5714347 101.217061 43.7081595 101.231728 43.8462166 101.23767 43.9847857ZM97.3961241 40.3857552 97.3961241 40.3857552C97.0410424 40.5144542 96.6821751 41.1057127 96.4520155 42.0043347L99.8082573 41.9710244 99.8082573 41.9710244C99.8671466 41.9685335 99.9261409 41.9708121 99.9846625 41.9778379L99.9846625 41.9778379C100.363215 42.0194758 100.690283 42.2988284 100.918172 42.7258064 100.88929 42.5458074 100.874859 42.3637861 100.875017 42.1814852 100.875017 41.4085339 101.126375 40.7271861 101.506441 40.3350326L97.6126558 40.3350326C97.5378432 40.3375231 97.4642587 40.3547603 97.3961241 40.3857552L97.3961241 40.3857552ZM101.164231 44.8750801C101.250118 44.6892947 101.365702 44.5187424 101.506441 44.3701257L101.235398 44.3701257C101.225023 44.5400564 101.201226 44.7089008 101.164231 44.8750801L101.164231 44.8750801ZM100.968141 45.4625533C100.729653 45.9690219 100.354886 46.3006111 99.9263655 46.3195375L99.7416322 46.3316503 98.6271751 46.3316503 98.6271751 46.3316503 98.0116496 46.3316503 96.4436873 46.3361926C96.6170641 47.0175404 96.834353 47.4929698 97.1250809 47.7821641 97.2393041 47.9240392 97.4087658 48.0102798 97.5906998 48.0191217L97.5906998 48.0191217 97.8844562 48.0191217 101.518555 48.0191217C101.140003 47.6269682 100.887888 46.9463774 100.887888 46.1734262 100.88921 45.9342849 100.916114 45.6959712 100.968141 45.4625533L100.968141 45.4625533Z"/><path fill="#FFF" fill-rule="nonzero" d="M97.0864686,48.3681232 C96.3149797,47.5043256 95.7993919,46.0757664 95.8667741,43.7114895 C95.9053864,42.3669632 96.2074709,41.0292503 97.0728407,40.0019293 C97.0879828,39.98376 97.118267,39.9883023 97.1417372,39.9883023 L100.321574,39.9883023 C99.7446606,38.9155581 98.9459159,38.2273968 98.0646469,38.1789454 L98.0426909,38.1789454 C98.0192207,38.1789454 97.9965076,38.1789454 97.9730373,38.172889 L97.9654663,38.172889 C96.14236,38.172889 94.6016534,40.9156924 94.6016534,44.1642073 C94.6016534,47.2999212 96.1029906,50.0010867 97.9677376,50.0010867 L97.9677376,50.0010867 C98.1010891,50.0041919 98.2343197,49.9909715 98.3644601,49.96172 L98.3644601,49.96172 C99.0950654,49.820151 99.7575314,49.2402484 100.267062,48.3719084 L97.0864686,48.3681232 Z"/><path fill="#FFF" fill-rule="nonzero" d="M99.0519105 42.3328958 96.3664627 42.3593926C96.2749368 42.8247255 96.2205066 43.2965907 96.2036854 43.7705396 96.2036854 44.2921492 96.2203417 44.8455551 96.258954 45.2937305 96.2862097 45.5354828 96.3215412 45.7638605 96.3649485 45.9788636L99.041311 45.971293C98.6688159 45.5927665 98.4265426 44.9326162 98.4265426 44.1710207 98.4265426 43.4094253 98.6763869 42.7273205 99.0519105 42.3328958ZM86.1781148 54.6743756C86.1781148 53.0194575 86.5407676 51.5000519 87.1419081 50.3016368 87.4030303 49.6957415 87.7768481 49.1449431 88.2434944 48.678515L84.0574666 48.678515 84.0574666 60.5127692 88.2419802 60.5127692C86.99503 59.3241958 86.1781148 57.1764361 86.1781148 54.6743756Z"/><path fill="#FFF" fill-rule="nonzero" d="M90.7585937 48.6883566C90.7336093 48.6883566 90.7086249 48.6883566 90.6828833 48.6823002L90.6828833 48.6823002C88.859777 48.6823002 87.3190705 51.4251036 87.3190705 54.6743756 87.3190705 57.5352793 88.5788915 59.9949448 90.1672956 60.4408491L90.1672956 60.4408491C90.3295644 60.4896833 90.4982907 60.513676 90.6677413 60.5120931L90.6889402 60.5120931C90.9229367 60.5107393 91.1544208 60.463674 91.3703337 60.3734714L91.3703337 60.3734714C92.8489578 59.7965969 93.9694716 57.4043091 93.9694716 54.5971562 93.9664432 51.416019 92.5271886 48.7655761 90.7585937 48.6883566ZM102.311243 40.2986941C101.740387 40.2986941 101.278553 41.1314525 101.278553 42.1549883 101.278553 43.1785241 101.740387 44.0112825 102.311243 44.0112825 102.882099 44.0112825 103.343933 43.1785241 103.343933 42.1549883 103.343933 41.1314525 102.881342 40.2986941 102.311243 40.2986941ZM102.311243 43.5994456C101.932691 43.5994456 101.629849 42.9529223 101.629849 42.1549883 101.629849 41.3570543 101.932691 40.711288 102.311243 40.711288 102.689795 40.711288 102.992637 41.3578114 102.992637 42.1549883 102.992637 42.9521652 102.689038 43.5994456 102.311243 43.5994456ZM99.8657972 45.9781065C100.435139 45.9781065 100.896216 45.1551898 100.896216 44.1407386 100.896216 43.1262874 100.435139 42.3026137 99.8665543 42.3026137 99.2979693 42.3026137 98.8361358 43.1255304 98.8361358 44.1407386 98.8361358 45.1559468 99.2972121 45.9781065 99.8657972 45.9781065ZM99.8657972 42.7106653C100.244349 42.7106653 100.547191 43.3511322 100.547191 44.1407386 100.547191 44.930345 100.244349 45.5700549 99.8657972 45.5700549 99.4872452 45.5700549 99.1844037 44.930345 99.1844037 44.1407386 99.1844037 43.3511322 99.4895166 42.7106653 99.8665543 42.7106653L99.8657972 42.7106653ZM102.311243 44.3390865C101.740387 44.3390865 101.278553 45.171845 101.278553 46.1953808 101.278553 47.2189166 101.740387 48.051675 102.311243 48.051675 102.882099 48.051675 103.343933 47.2189166 103.343933 46.1953808 103.343933 45.171845 102.881342 44.3390865 102.311243 44.3390865ZM102.311243 47.639081C101.932691 47.639081 101.629849 46.9925577 101.629849 46.1953808 101.629849 45.3982038 101.932691 44.7509234 102.311243 44.7509234 102.689795 44.7509234 102.992637 45.3974468 102.992637 46.1953808 102.992637 46.9933147 102.689038 47.639081 102.311243 47.639081ZM24.1516162 34.824443C25.8573714 34.9039336 27.3670367 36.1159757 28.411083 38.0116366L30.7384206 38.0116366C30.1054217 37.3914807 29.5812588 36.6692696 29.1878717 35.8752328 29.1492594 35.7995275 29.1121613 35.7200369 29.0727919 35.6413034 28.9970815 35.4833316 28.9249042 35.3213222 28.8562602 35.1552753 28.8214334 35.0727565 28.7881208 34.9887236 28.7548082 34.9039336 28.5860118 34.467278 28.4429267 34.0211151 28.3262874 33.5677349 28.0226399 32.3742887 27.8715286 31.1471642 27.8765676 29.9157107 27.8737337 28.7566302 28.0058544 27.6011604 28.2702617 26.4726331 28.3399153 26.1804106 28.417897 25.8955063 28.5042068 25.6179202 28.5609896 25.4331992 28.622315 25.2507494 28.6866689 25.0728419 28.7510227 24.8949345 28.8191621 24.7200552 28.8903298 24.5497182 29.1573485 23.8985784 29.4931347 23.277809 29.8919784 22.6979663 30.0343139 22.493562 30.1829586 22.3000088 30.3379126 22.1173066 30.4884879 21.9381133 30.6484615 21.7670314 30.8171594 21.6047816L15.3911663 21.6047816 15.3911663 34.8130873 23.7670074 34.8130873C23.924485 34.8130873 24.1516162 34.824443 24.1516162 34.824443ZM62.9910491 40.9217488C63.0065109 40.9224751 63.0219254 40.9239912 63.0372324 40.9262911 63.0819016 40.9262911 63.1250565 40.9217488 63.1697256 40.9217488L63.1697256 40.9217488 63.2976762 40.9293193C63.3082756 40.9293193 63.3173609 40.9293193 63.3279603 40.9331046 64.8292975 41.0035105 66.1580149 42.0686843 67.0771391 43.7387434L69.0819504 43.7387434C67.5586572 42.2889867 66.5623084 39.6665547 66.5623084 36.6126025 66.5623084 33.5086847 67.6010551 30.7878359 69.1508469 29.2971983L54.9331917 29.2971983 54.9331917 40.9217488 62.9910491 40.9217488ZM33.312574 91.400536 31.7181131 91.400536 31.7181131 90.5215974C31.1676985 91.1476803 30.0948822 91.6102398 29.1787864 91.6102398 27.3072255 91.6102398 25.6453823 90.1839517 25.6453823 87.8681262 25.6453823 85.740807 27.2678561 84.200961 29.2794813 84.200961 30.7588624 84.200961 31.6355888 85.2154121 31.6878289 85.3153431L31.7143276 85.3153431 31.7143276 84.4212634 33.312574 84.4212634 33.312574 91.400536ZM29.5437105 85.7279371C28.1173267 85.7279371 27.3844501 86.9043976 27.3844501 87.9438315 27.3788285 88.5164478 27.6051367 89.066978 28.0118629 89.4701119 28.4185892 89.8732458 28.9711275 90.0946831 29.5437105 90.0840207 30.7475058 90.0840207 31.6636032 89.1823704 31.6636032 87.893109 31.6651158 86.4554651 30.5794288 85.7279371 29.5452247 85.7279371L29.5437105 85.7279371ZM35.286344 84.4205064 36.8959471 84.4205064 36.8959471 85.0322053C37.1844037 84.7687508 37.7863013 84.1933904 38.8856162 84.1933904 39.5132554 84.1933904 40.4687206 84.4560879 41.0713754 85.157119 41.7383839 85.9209856 41.7383839 87.0845763 41.7383839 87.622084L41.7383839 91.400536 39.9970449 91.400536 39.9970449 87.9483739C39.9970449 87.3722564 39.9970449 85.7203666 38.5312916 85.7203666 38.2170935 85.7203666 37.6545652 85.8717772 37.3403671 86.3335796 37.0261689 86.7598005 37.0261689 87.4850574 37.0261689 88.0748017L37.0261689 91.4058354 35.2848298 91.4058354 35.286344 84.4205064ZM55.5941434 87.9233911C55.5941434 85.8202976 57.3869656 84.2055033 59.4682444 84.2055033 61.5230245 84.2055033 63.3158467 85.7703321 63.3158467 87.8976513 63.3158467 90.1756241 61.4836551 91.6147821 59.4682444 91.6147821 57.3082268 91.6147821 55.5941434 89.9129267 55.5941434 87.9233911ZM61.5752647 87.935504C61.5752647 86.6712253 60.5539314 85.7324794 59.4682444 85.7324794 58.5650194 85.7324794 57.3347254 86.4713632 57.3347254 87.9233911 57.3237086 88.4954166 57.5439119 89.0477024 57.9454935 89.4552419 58.3470751 89.8627814 58.89608 90.0911158 59.4682444 90.0885842 60.7371506 90.0893201 61.5752647 89.0370162 61.5752647 87.935504L61.5752647 87.935504ZM67.1679916 86.297241C67.0498834 85.7468634 66.6577035 85.6968979 66.4744844 85.6968979 66.042178 85.6968979 65.8067187 86.0095608 65.8067187 86.297241 65.8067187 86.6977221 66.1095603 86.7855403 67.0370126 87.0732205 67.9402376 87.3359179 69.0652941 87.7492689 69.0652941 89.1505742 69.0652941 90.715403 67.7698892 91.5792006 66.5267245 91.5792006 65.8067187 91.5792006 64.9171215 91.3414859 64.3538362 90.6654375 63.9086591 90.1400426 63.8435481 89.589665 63.8041787 89.1634441L65.5841301 89.1634441C65.6598405 89.476107 65.8195895 90.0514674 66.5395953 90.0514674 67.1021236 90.0514674 67.3247121 89.6388735 67.3247121 89.3511933 67.3247121 88.8379113 66.9325323 88.7129975 65.6886105 88.3117594 64.8641243 88.049819 64.0661367 87.4615887 64.0661367 86.3222238 64.0661367 84.970884 65.3358 84.1691647 66.5002259 84.1691647 67.5866701 84.1691647 68.8033361 84.9201614 68.8692042 86.297241L67.1679916 86.297241Z"/><polygon fill="#FFF" fill-rule="nonzero" points="69.855 82.14 71.596 82.14 71.596 87.722 71.622 87.722 73.969 84.423 75.97 84.423 73.32 87.858 76.278 91.4 74.083 91.4 71.622 88.144 71.596 88.144 71.596 91.4 69.854 91.4"/><path fill="#FFF" fill-rule="nonzero" d="M83.2556935 84.4235346 83.2556935 91.400536 81.6589613 91.400536 81.6589613 90.6692227 81.6324627 90.6692227C81.3447632 91.0477493 80.8753587 91.5950987 79.7609017 91.5950987 78.4389982 91.5950987 77.6932508 90.9697728 77.3268125 90.4943435 76.7900258 89.7554596 76.7900258 88.6289646 76.7900258 88.0536042L76.7900258 84.4235346 78.5313649 84.4235346 78.5313649 87.9695713C78.5313649 88.5328189 78.5313649 90.0719078 80.0455728 90.0719078 81.1456448 90.0719078 81.511326 89.0831965 81.511326 87.9816842L81.511326 84.4273198 83.2556935 84.4235346ZM84.4488894 84.4212634 86.1902285 84.4212634 86.1902285 91.400536 84.4488894 91.400536 84.4488894 84.4212634ZM84.4488894 82.1183079 86.1902285 82.1183079 86.1902285 83.645284 84.4488894 83.645284 84.4488894 82.1183079Z"/><polygon fill="#FFF" fill-rule="nonzero" points="87.462 82.128 89.204 82.128 89.204 91.401 87.462 91.401"/><path fill="#FFF" fill-rule="nonzero" d="M92.1539363 88.6607608C92.2296467 89.1149927 92.9110403 90.088563 94.1564763 90.088563 94.9287223 90.088563 95.5048784 89.775143 95.8319473 89.1990256L97.6664102 89.1990256C97.2477317 90.4511914 95.8735881 91.6147821 94.1587476 91.6147821 91.947247 91.6147821 90.3240161 89.9628922 90.3240161 87.935504 90.3240161 85.9671659 91.8427666 84.2055033 94.1458768 84.2055033 96.528483 84.2055033 97.9018696 86.0708822 97.9018696 87.822703 97.8992277 88.105133 97.8641715 88.3863262 97.7973892 88.6607608L92.1539363 88.6607608ZM96.1196468 87.3222909C95.9235569 86.2079088 95.0861999 85.7324794 94.1564763 85.7324794 93.4500983 85.7324794 92.4287651 86.0353007 92.1024533 87.3222909L96.1196468 87.3222909ZM98.8596061 84.4220205 100.473752 84.4220205 100.473752 85.027663C100.762965 84.7634514 101.367134 84.186577 102.469478 84.186577 103.099388 84.186577 104.059396 84.4500314 104.665079 85.1533338 105.334359 85.9187145 105.334359 87.0868474 105.334359 87.6266263L105.334359 91.4035643 103.588477 91.4035643 103.588477 87.9529162C103.588477 87.3752847 103.588477 85.7180954 102.118181 85.7180954 101.802469 85.7180954 101.238427 85.869506 100.923471 86.3335796 100.608516 86.7605575 100.608516 87.4888426 100.608516 88.0748017L100.608516 91.400536 98.8626345 91.400536 98.8596061 84.4220205Z"/><polygon fill="#FFF" fill-rule="nonzero" points="18.668 81.562 20.536 81.562 20.536 88.352 25.448 81.562 28.028 81.562 20.689 91.404 18.668 91.404"/><polygon fill="#FFF" fill-rule="nonzero" points="48.997 81.562 50.866 81.562 50.866 88.352 55.777 81.562 58.358 81.562 51.019 91.404 48.997 91.404"/></g></svg>